<svg xmlns="http://www.w3.org/2000/svg" viewBox="0 0 655 251.19"><title>Camada 1</title><g id="Camada_2" data-name="Camada 2"><g id="Camada_1-2" data-name="Camada 1"><g id="dog"><path d="M30.72,112a3.62,3.62,0,0,1-.7-.75c-.67-1.35-1.33-2.71-1.94-4.08-.95-2.15-1.32-4.42-2.14-6.61a26.27,26.27,0,0,1-2-7.81c-.06-1.07-.48-2.13-.64-3.2-.26-1.68-.49-3.35-.64-5-.12-1.31-.06-2.62-.12-3.93-.05-.9-.2-1.8-.23-2.7A50.09,50.09,0,0,1,23,68.69c.2-1.45.47-2.89.72-4.34a2.32,2.32,0,0,1,.19-.54c.59-1.22,1.23-2.42,1.75-3.65.43-1,.67-2.1,1.08-3.13.74-1.86,1.56-3.69,2.33-5.54.53-1.28,1-2.57,1.52-3.86.2-.49.44-1,.64-1.48.63-1.6,1.24-3.21,1.86-4.82.52-1.33,1-2.65,1.56-4,.31-.82.6-1.65.88-2.47.62-1.81,1.3-3.61,1.84-5.43.59-2,1.09-7.39,1.58-9.42.58-2.38,1.14-4.78,1.68-7.17a9.06,9.06,0,0,0,.24-1.79c0-1.73,0-3.47,0-5.2a4.51,4.51,0,0,1,.38-1.64,1.17,1.17,0,0,1,1.94-.39,4.25,4.25,0,0,1,1,1.18c1.25,2,2.37,4.06,3.7,6,1.79,2.62,3.06,5.44,4.6,8.15.69,1.22,1.19,2.51,1.8,3.76s1.22,5.63,1.75,6.79c.7,1.54,1.32,3.1,2,4.66s1.4,3.41,2.06,5.12c.25.64.36,1.32.58,2,.32.94.68,1.87,1,2.8a36.66,36.66,0,0,1,1.65,6.48c.33,1.77.72,3.54,1,5.32.14.81.15,1.65.24,2.47a13.69,13.69,0,0,0,.25,1.56c.16.65.51.86,1.27.66a63.14,63.14,0,0,1,7.27-1.12,3.13,3.13,0,0,0,.53-.12,24,24,0,0,1,7.74-.63c.51,0,1,0,1.27.68-.6.18-1.2.39-1.83.55-1.43.37-2.88.72-4.33,1.06-1.14.27-2.3.49-3.43.78-1.75.44-3.49.92-5.22,1.41a7.23,7.23,0,0,0-1,.54,7.86,7.86,0,0,1-1.32.6,1.64,1.64,0,0,1-2.14-.74,11.64,11.64,0,0,1-1.28-3.07,30.45,30.45,0,0,0-2.19-5.53c-.59-1.38-1.09-2.78-1.75-4.14-.81-1.66-1.83-3.27-2.6-4.95a31.45,31.45,0,0,0-4.12-6.19,12.81,12.81,0,0,0-2.06-2c-.91-.73-1.49-.6-1.89.37a19.43,19.43,0,0,0-.6,2c-.51,1.63-1,3.29-1.56,4.9-.92,2.4-1.88,4.79-3,7.13-1.36,2.83-2.88,5.61-4.39,8.39-.7,1.29-1.63,2.51-2.27,3.82-1,2.13-1.92,4.31-2.83,6.48a24,24,0,0,0-1.35,3.65c-.51,2.09-.82,4.22-1.25,6.33-.12.59-.38,1.16-.5,1.75a12.44,12.44,0,0,0-.33,2.34c-.05,4.1-.16,8.2,0,12.3.07,2.7.45,5.39.78,8.08a26.26,26.26,0,0,0,.7,2.63c.18.8.32,1.62.43,2.43S31.58,111.25,30.72,112Z"/><path d="M133.68,86.41c.77-.06,1.22.16,1.14.8a10.52,10.52,0,0,1-.38,1.64,8.86,8.86,0,0,0-.42,1c-.42,2.4-.82,4.82-1.21,7.23a2.21,2.21,0,0,0,.08.5,1.5,1.5,0,0,0,1.18-1,6.43,6.43,0,0,1,2.72-3,2.48,2.48,0,0,0,1.08-3,8.61,8.61,0,0,1-.05-2.92,3,3,0,0,1,2.07,2.34c.22.79.47,1.58.64,2.39.23,1,.51,2-.41,2.89a2.45,2.45,0,0,0-.66,2.33,7.27,7.27,0,0,1-.35,3.88,4.86,4.86,0,0,0-.26,1.9c0,2.45.11,4.9.16,7.35a3.63,3.63,0,0,1-.13,1.23c-.06.18-.43.37-.68.4s-.45-.25-.5-.43a3,3,0,0,1-.09-1.12c.19-1.83-.7-3.44-1.54-5.05-.36-.71-1.19-1-2.71-.87a17.61,17.61,0,0,0,.4,2.19,20.36,20.36,0,0,0,6.56,9.31,30,30,0,0,0,4.59,3c1,.55,2.12.85,3.15,1.33,1.34.63,2.63,1.33,4,2,1.95,1,3.94,1.88,5.88,2.85,1.75.89,3.5,1.78,5.17,2.76,2.27,1.33,4.54,2.66,6.64,4.15a31.69,31.69,0,0,1,7.12,6.5,9.75,9.75,0,0,1,1.72,9.07,4.47,4.47,0,0,1-.56,1.14,16.09,16.09,0,0,1-3.37,4.1,2.41,2.41,0,0,0-.86,1.86c-.11,1.75-.34,3.51-.55,5.26a37.2,37.2,0,0,1-.55,3.79c-.53,2.43-1.25,4.84-1.72,7.27a16,16,0,0,1-1.7,4.27,20.14,20.14,0,0,1-3.37,5,10.8,10.8,0,0,1-4.6,2.56,2.1,2.1,0,0,1-2.33-.42c-.36-.54-.13-1.15.91-1.78a12,12,0,0,0,3.18-2.64,12.83,12.83,0,0,0,2.11-3.89,27.09,27.09,0,0,0,1.1-10.06c-.06-1.47-.07-2.94-.11-4.41a4.21,4.21,0,0,0-.06-.79c-.17-.76-.48-.86-1.31-.54A22.32,22.32,0,0,1,161,160c-2.38.4-4.8.59-7.08-.47a12.89,12.89,0,0,1-5.71-5,6.48,6.48,0,0,1-1.08-3.78,11.22,11.22,0,0,1-.15-2,11.08,11.08,0,0,1,5.2-7,28.57,28.57,0,0,1,6.47-3.16c.93-.31,1.81-.72,2.7-1.1.71-.31.84-.64.3-1.17-1-.93-2-1.81-3.07-2.68a26.92,26.92,0,0,0-2.34-1.7c-1.18-.77-2.39-1.51-3.61-2.24-1.85-1.09-3.73-2.16-5.58-3.25-2.3-1.36-4.69-2.63-6.84-4.12a25.52,25.52,0,0,1-6.6-6.14,37.71,37.71,0,0,1-2.68-4.89,20.49,20.49,0,0,1-2-10,35.18,35.18,0,0,1,.78-5.58,21.39,21.39,0,0,1,1-2.56,8.2,8.2,0,0,0,.46-2C131.38,89.3,132.66,87.91,133.68,86.41Z"/><path d="M134.85,82.57a7.89,7.89,0,0,1-1.5,0,5.64,5.64,0,0,1-2.91-1.18.79.79,0,0,0-.43-.26c-1.43,0-2.3-.87-3.38-1.38-.74-.36-1.33-.92-2-1.34A56.75,56.75,0,0,1,114,70.08c-1.58-1.52-3.28-2.93-5-4.34a23.08,23.08,0,0,0-2.74-1.64c-.33-.2-.61-.45-.92-.66a5.61,5.61,0,0,0-.86-.49c-1.47-.61-2.94-1.2-4.42-1.8-.57-.22-1.15-.44-1.73-.64a6,6,0,0,1-1.28-.4c-1.65-1-3.64-.92-5.51-1.14S88.93,57.59,90,56.24c.66-.81,1.42-1.57,2-2.39.8-1.05,1.41-2.2,2.28-3.21a27,27,0,0,0,2.78-4.72c.36-.65.84-1.26,1.15-1.92.89-1.89,1.69-3.81,2.57-5.69a45.63,45.63,0,0,0,2.36-6.8c.58-2,1.22-7.35,1.84-9.34a4.45,4.45,0,0,0,.22-.77c.24-2.13.46-4.26.69-6.39,0-.48.13-1,.2-1.45a19.36,19.36,0,0,0,.33-2.23c.09-3.16.13-6.32.19-9.49,0-1,.49-1.7,1.24-1.83a2.25,2.25,0,0,1,1.95,1.24,5.71,5.71,0,0,1,.36,1.08c.32.93.66,1.87,1,2.8a5.15,5.15,0,0,1,.24.76c.47,2.21.94,4.42,1.38,6.64.34,1.66.7,3.33,1,5a36.16,36.16,0,0,1,.38,4.15c.06,2.18.06,7.74,0,9.92s-.21,4.13-.38,6.18a10.53,10.53,0,0,1-.52,1.86,4.09,4.09,0,0,0-.28,1,19.23,19.23,0,0,1-1.07,4.51c-.82,3.19-1.55,6.37-.58,9.68a43.37,43.37,0,0,0,1.56,4.76,13.93,13.93,0,0,0,.95,1.73,45.12,45.12,0,0,0,2.59,4.31,59.08,59.08,0,0,0,6.39,7.59,32.14,32.14,0,0,0,3,2.31c1.29,1,2.57,1.93,3.92,2.83A35.14,35.14,0,0,0,133,80.2,4.43,4.43,0,0,1,134.85,82.57Z"/><path d="M31,119.75a5.92,5.92,0,0,1,.08,1c0,1-.09,1.94-.18,2.91s-.21,2-.36,3c-.26,1.71-.54,3.41-.82,5.12-.5,3-1.05,6.08-1.48,9.13-.26,1.85-.34,3.73-.48,5.59-.23,2.88-.19,5.77-.64,8.65a36.37,36.37,0,0,0-.15,4.05c-.1,2.39.3,4.79-.27,7.18a12.79,12.79,0,0,0,0,3.27c.08,3,.14,6.09.24,9.13,0,.89.18,1.79.27,2.68.13,1.27.29,2.54.38,3.82.14,2,.16,4,.35,6,.16,1.6.52,3.19.77,4.78.05.3,0,.6.06.9.19,1.72.51,3.44.55,5.16.06,2.39,1.15,4.61,1.5,6.94.2,1.33.67,2.65.21,4a6,6,0,0,1-.3.66,2.94,2.94,0,0,1-2.37-1.55,18,18,0,0,1-2.16-5.42,14.81,14.81,0,0,0-1.25-4.36c-1-2-1.06-4.18-2.09-6.15a6.92,6.92,0,0,1-.32-1.78C22,192,21.46,189.48,20.86,187c-.32-1.27-.75-2.53-1.2-3.79-.3-.86-.84-1-1.88-.72a5.77,5.77,0,0,1-1,.31c-2.1.22-3.61,1.37-5.29,2.23a40,40,0,0,0-7.13,5.14A18.31,18.31,0,0,1,2,191.75c-.93.54-1.86.17-2-.74a3.2,3.2,0,0,1,.68-2.49,51.17,51.17,0,0,1,6.74-7.1c1.59-1.3,3.11-2.65,4.74-3.91s3.31-2.49,5.08-3.63a3,3,0,0,0,1.58-2.48c.16-2.66.27-5.32.54-8,.16-1.67.61-3.33.85-5,.46-3.17.86-6.33,1.31-9.5a11.65,11.65,0,0,1,.46-2.09,8.19,8.19,0,0,0,.6-3.11,2.27,2.27,0,0,1,.31-1.2,8.39,8.39,0,0,0,.92-3.73,5.13,5.13,0,0,1,.09-.67c.37-1.62.67-3.25,1.14-4.85s1.15-3.32,1.69-5a15,15,0,0,0,.36-1.87,16.32,16.32,0,0,1,.41-2c.41-1.27.89-2.53,1.38-3.78C29.26,119.78,29.67,119.6,31,119.75Z"/><path d="M65.51,162.79a1.4,1.4,0,0,1,1.87-.75,24.92,24.92,0,0,0,5,1.07,13.63,13.63,0,0,1,2.92.94c1.56.61,3.07,1.29,4.59,2,1,.43,1.92.87,2.84,1.36,1.64.88,3.34,1.72,4.85,2.73,2.15,1.44,4.2,3,6.22,4.55,1.46,1.14,2.84,2.34,4.17,3.57,2.06,1.91,4,3.91,6.08,5.79a20.77,20.77,0,0,0,6,4.24,47.28,47.28,0,0,0,6.93,2.66c.92.22,1.85.42,2.78.58A46.47,46.47,0,0,0,133,192a40.1,40.1,0,0,0,5.72-1.2,14.11,14.11,0,0,0,2.9-1.25,18.37,18.37,0,0,0,5-3.54,39.81,39.81,0,0,1,5.66-5.24q2.8-2.08,5.66-4.13c1.11-.79,1.16-.77,2.33-.61.23.51-.18.85-.54,1.18-.88.81-1.83,1.58-2.67,2.43a49.68,49.68,0,0,0-6.83,7.89c-2.58,4-6.7,6.61-11.75,8.28a18.5,18.5,0,0,1-2.4.44,6.58,6.58,0,0,0-1.44.33,13.59,13.59,0,0,1-5.6.93c-2.11,0-4.22,0-6.33,0a10.59,10.59,0,0,1-1.72-.32,26.49,26.49,0,0,0-2.93-.54,20,20,0,0,1-5.27-1.18,29.71,29.71,0,0,1-13.5-8.69c-2.7-3-5.66-5.78-8.59-8.6a55.52,55.52,0,0,0-7.7-6.05,2.52,2.52,0,0,0-.69-.36c-1.45-.45-2.9-.89-4.37-1.31-.73-.22-1.48-.39-2.23-.56-.92-.21-1.86-.39-2.78-.61-.42-.1-.82-.27-1.26-.42.43-1.37,2.14-.76,3-1.48A3.07,3.07,0,0,0,73,165.89a28.1,28.1,0,0,0-2.81-1.17,5.1,5.1,0,0,0-1.15-.35C67.62,164.21,66.81,163.21,65.51,162.79Z"/><path d="M125.45,250.48a14.53,14.53,0,0,1-.5-2.39c-.06-.93.14-1.87.13-2.8,0-.67-.24,5.4-.27,4.73-.09-2.94-.14-2.52-.23-5.46a28.1,28.1,0,0,0-1-7c-.32-1.12-.48-2.28-.73-3.42-.3-1.37-.63-2.73-.93-4.09-.2-.92-.32-1.85-.57-2.76-.46-1.68-1-3.35-1.51-5-.73-2.27-1.5-4.55-2.28-6.82a16.74,16.74,0,0,0-.7-1.57c-.49-1.09-1-2.17-1.47-3.27-.57-1.39-1.05-2.8-1.65-4.17-.69-1.59-1.44-3.16-2.2-4.72-.54-1.11-1.14-2.21-1.7-3.31a.65.65,0,0,1-.11-.32c0-.47-.26-1,.37-1.35a1.63,1.63,0,0,1,1.76.2,15.28,15.28,0,0,0,5.08,1.62,2.71,2.71,0,0,1,2.37,1.93c.32,1,.63,2,1,3,.59,1.61,1.29,3.2,1.8,4.82.46,1.45.69,2.94,1.08,4.41.22.84.57,1.65.81,2.49s.44,1.76.68,2.63c.29,1.1.64,2.18.89,3.29s.44,2.36.65,3.54l.87,5a5,5,0,0,1,.11.66c.2,3.08.38,6.16.6,9.23.07,1,.33,2,.33,2.92,0,2.78,0,5.57-.19,8.35-.14,2.09-.51-5.92-.84-3.84a26.3,26.3,0,0,1-.77,3c-.07.21-.36.39-.55.58Z"/><path d="M94.16,231.51c-1.38-.19-2-.59-2.16-1.53a12.16,12.16,0,0,0-1.31-3.53,23.86,23.86,0,0,1-1.63-4.51c-.65-2.45-1.12-4.93-1.7-7.39-.26-1.06-.62-2.11-.89-3.17-.45-1.75-.87-3.52-1.27-5.28a12,12,0,0,1-.17-1.57c-.14-1.5-.27-3-.41-4.49-.09-.94-.21-1.87-.25-2.8,0-.72,0-1.43,0-2.14,0-.87,0-1.73,0-2.6,0-1.6-.06-3.21-.06-4.82a15.45,15.45,0,0,1,.16-1.79c.13-1,.25-2.09.45-3.12s.52-2.12.78-3.18a1.84,1.84,0,0,1,1.74-1.53,2.14,2.14,0,0,1,1.92.84,16.67,16.67,0,0,0,2.1,1.91c1.49,1.17,1.81,2.43.94,4a6.78,6.78,0,0,0-.33.85c-.33.86-.7,1.7-1,2.56a6,6,0,0,0-.31,1.44c-.19,1.9-.35,3.81-.5,5.72-.09,1-.18,2.09-.19,3.14,0,1.69,0,3.39.13,5.08s.2,3.15.34,4.72c.2,2.13.44,4.26.65,6.39.09,1,.11,1.95.26,2.91.11.66.41,1.3.58,2,.36,1.38.68,2.78,1,4.17a7,7,0,0,0,.31,1.2c.82,1.83.74,3.77,1,5.66A2.84,2.84,0,0,1,94.16,231.51Z"/><path d="M84.05,114.8c-.66.16-1.17.32-1.69.39-1,.12-1.4-.17-1.2-1.16a5.07,5.07,0,0,1,.7-1.47,16.16,16.16,0,0,1,4.9-5,16.27,16.27,0,0,1,2.83-1.74,14.62,14.62,0,0,1,3.59-1.08,7.05,7.05,0,0,1,4.68,1.26,23.15,23.15,0,0,1,3.8,3.06,5.89,5.89,0,0,1,1.29,2.08,1.17,1.17,0,0,1-.39,1.19c-1.85.77-2.44,2.43-3.86,3.46s-2.56,2-4.47,2c-1.33,0-2.66.06-4,0a3.37,3.37,0,0,1-1.16-.3A15.87,15.87,0,0,1,84.35,115,2,2,0,0,0,84.05,114.8Z"/><path d="M91.64,73.48a2.78,2.78,0,0,1,2.32-.2,6.2,6.2,0,0,1,1.88.91,9.48,9.48,0,0,0,2.51,1.3,17.53,17.53,0,0,1,2.46,1.4,24.7,24.7,0,0,0,2.49,1.56,35,35,0,0,1,6.42,4.39,10.82,10.82,0,0,1,4.57,8.52,9,9,0,0,0,.29,1.77,16.15,16.15,0,0,1-.09,6,5.53,5.53,0,0,0,0,.91,12.69,12.69,0,0,1-1.21,4.94c-.16.42-.36.94-1,.94a1.21,1.21,0,0,1-1.19-1.08,5.67,5.67,0,0,1-.12-1.79c.1-1.12.32-2.24.42-3.36a8.39,8.39,0,0,0-.09-1.8c-.24-1.78-.52-3.56-.78-5.34a2.23,2.23,0,0,0-.08-.45c-1.16-2.58-1.93-5.31-4.35-7.4-1.2-1-2.19-2.22-3.46-3.18-2-1.54-4.23-3-6.37-4.4A25.47,25.47,0,0,1,91.64,73.48Z"/><path d="M54.84,68.15C57,66.77,57.67,64.58,59.42,63c.84.25,1.19.69,1.13,1.31a5.48,5.48,0,0,1-.32,1.76c-.48,1-1.15,2-1.65,3.07a25.18,25.18,0,0,1-3,4.25,5.59,5.59,0,0,1-.57.63l-8.46,7.8a32.42,32.42,0,0,0-4.32,4.46,13.81,13.81,0,0,1-1.63,1.81A17,17,0,0,1,39,89.32c-.89-.28-1.12-.72-.88-1.3.42-1,.89-2,1.34-2.94.13-.28.25-.56.36-.85.5-1.43,1-2.87,1.51-4.3a6.4,6.4,0,0,1,.74-1.45c.67-1,1.22-1,2.31-.41.11.07.24.11.49.23a6.2,6.2,0,0,0,1-.83c1.57-1.88,3.44-3.61,4.44-5.79.33-.7.54-1.43.85-2.14a9.89,9.89,0,0,1,.88-1.75c.69-1,1.46-1,2.31-.08C54.51,67.83,54.63,67.94,54.84,68.15Z"/><path d="M132.1,175.34c1.33.33,2.17.88,2.46,2s-1.24,2.12-2.52,1.62-1.88-1.89-.91-2.88A8.77,8.77,0,0,1,132.1,175.34Z"/><path d="M132.83,170.86a1.6,1.6,0,0,1,1-1.69,1.83,1.83,0,0,1,2,.75c.91,1,.6,2-.78,2.45a2,2,0,0,1-2.17-1.17A1.07,1.07,0,0,1,132.83,170.86Z"/><path d="M140.82,177.21a1.55,1.55,0,0,1-1.56,1.56,2.28,2.28,0,0,1-1.95-1.64c0-.57,1-1.49,1.76-1.52A1.87,1.87,0,0,1,140.82,177.21Z"/><path d="M127.83,176.32a1.48,1.48,0,0,1-1.46,1.5,2,2,0,0,1-1.8-1.59,1.47,1.47,0,0,1,1.54-1.42A1.89,1.89,0,0,1,127.83,176.32Z"/><path d="M138.44,183.25a1.76,1.76,0,0,1-1.72-1.21c-.07-.65.91-1.44,1.77-1.43a1.59,1.59,0,0,1,1.6,1.29C140.13,182.59,139.34,183.23,138.44,183.25Z"/><path d="M141,172.74a2.72,2.72,0,0,1-1.62-1.11c-.39-.51-.2-.92.12-1.34s.94-.41,1.47-.38a1.06,1.06,0,0,1,1.05.88C142.24,171.66,142,172.17,141,172.74Z"/><path d="M133,182.52c0-.89.38-1.37,1.16-1.41a1.78,1.78,0,0,1,1.79,1.57c0,.72-.51,1.17-1.45,1.19S133,183.53,133,182.52Z"/><path d="M129.82,184a1.51,1.51,0,0,1-1.69-1.43c0-.72.56-1.18,1.44-1.22a1.32,1.32,0,0,1,1.55,1.35A1.19,1.19,0,0,1,129.82,184Z"/><path d="M120.61,181.88c-1,0-1.37-.34-1.35-1.17s.43-1.31,1.22-1.35a1.52,1.52,0,0,1,1.63,1.46C122.1,181.61,121.74,181.87,120.61,181.88Z"/><path d="M119.18,174.37a1.28,1.28,0,0,1,1.27-1.35,1.64,1.64,0,0,1,1.63,1.39,1.29,1.29,0,0,1-1.26,1.26A1.41,1.41,0,0,1,119.18,174.37Z"/><path d="M147,170.6a1.22,1.22,0,0,1-1.36,1.27,1.6,1.6,0,0,1-1.6-1.15c-.06-.68.76-1.4,1.61-1.42A1.3,1.3,0,0,1,147,170.6Z"/><path d="M127.15,169.29c0-.81.43-1.26,1.29-1.3a1.76,1.76,0,0,1,1.61,1.44c0,.48-.87,1.12-1.51,1.11A1.29,1.29,0,0,1,127.15,169.29Z"/><path d="M126.05,182.05a1.2,1.2,0,0,1-1.12,1.23,1.44,1.44,0,0,1-1.61-1.31,1.17,1.17,0,0,1,1.21-1.26A1.46,1.46,0,0,1,126.05,182.05Z"/><path d="M123.46,165.84a1.76,1.76,0,0,1,1.49,1.43c0,.51-.66,1.09-1.3,1.11s-1.6-.64-1.61-1.18A1.73,1.73,0,0,1,123.46,165.84Z"/><path d="M145.6,176.19c0,.89-.3,1.2-1.19,1.2a1.11,1.11,0,0,1-1.24-1.21,1.07,1.07,0,0,1,1.22-1.21C145.2,175,145.58,175.36,145.6,176.19Z"/></g><text/><g id="burton"><path d="M291.71,114.74c0,7-4,12.35-9.24,13.49v.38c5.28,1.14,9.24,6.46,9.24,13.49v35c0,17.86-7.48,27.36-21.26,27.36H235.26c-1.46,0-2.34-1.14-2.34-3V55.46c0-2.09.88-3,2.34-3h35.19c13.78,0,21.26,9.5,21.26,27.36ZM272.21,85.1c0-4.94-1.91-7.6-5.87-7.6H253v38.38h13.34c3.81,0,5.87-2.66,5.87-7.41Zm0,63.46c0-4.94-1.91-7.6-5.87-7.6H253v38.38h13.34c3.81,0,5.87-2.47,5.87-7.6Z"/><path d="M362.08,52.42c1.61,0,2.93,1.71,2.93,3.8V177.06c0,17.86-7.33,27.36-21.11,27.36H327.48c-13.78,0-21.11-9.5-21.11-27.36V56.22c0-2.09,1.32-3.8,2.93-3.8h14.07c1.62,0,2.93,1.71,2.93,3.8V171.74c0,5.13,2.06,7.6,5.87,7.6h7.62c3.81,0,5.87-2.47,5.87-7.6V56.22c0-2.09,1.32-3.8,2.93-3.8Z"/><path d="M439.93,126.14c0,12.73-3.67,21.09-10.71,25.08L439.34,201c.44,2.28-.44,3.42-2,3.42H422c-1.47,0-2.2-.95-2.49-2.66l-9.82-48.26H399.61v47.88c0,1.9-.88,3-2.35,3H382c-1.47,0-2.35-1.14-2.35-3V55.46c0-1.9.88-3,2.35-3h36.8c13.78,0,21.11,9.5,21.11,27.36Zm-25.81,2.28c3.82,0,5.87-2.66,5.87-7.6V85.1c0-4.94-2.05-7.6-5.87-7.6H399.61v50.92Z"/><path d="M508,52.42c1.61,0,2.35,1.14,2.35,3v19c0,1.9-.74,3-2.35,3h-17V201.38c0,2.09-.73,3-2.34,3H473.35c-1.46,0-2.34-.95-2.34-3V77.5H454c-1.47,0-2.35-1.14-2.35-3v-19c0-1.9.88-3,2.35-3Z"/><path d="M519.09,79.78c0-17.86,7.33-27.36,21.12-27.36h16.42c13.78,0,21.11,9.5,21.11,27.36v97.28c0,17.86-7.33,27.36-21.11,27.36H540.21c-13.79,0-21.12-9.5-21.12-27.36ZM553,179.91c3.81,0,5.86-2.47,5.86-7.6V84.53c0-4.94-2.05-7.6-5.86-7.6h-8.5c-3.81,0-5.87,2.66-5.87,7.6v87.78c0,5.13,2.06,7.6,5.87,7.6Z"/><path d="M652.65,52.42c1.47,0,2.35,1.14,2.35,3V201.38c0,1.9-.88,3-2.35,3H638.14c-1.32,0-2.2-.76-2.64-2.47l-22.43-81.13h-.73v80.56c0,1.9-.74,3-2.35,3H594.74c-1.46,0-2.34-1.14-2.34-3V55.46c0-1.9.88-3,2.34-3h14.52c1.32,0,2.2.76,2.64,2.47l22.28,80.75h.88V55.46c0-1.9.73-3,2.35-3Z"/></g></g></g></svg>