<svg version="1.1" id="Layer_1" xmlns="http://www.w3.org/2000/svg" xmlns:xlink="http://www.w3.org/1999/xlink" x="0px" y="0px" viewBox="0 0 18 18" style="enable-background:new 0 0 18 18;" xml:space="preserve">
<g>
	<path fill="#fff" d="M9,6C7.3,6,6,7.3,6,9s1.4,3,3,3s3-1.4,3-3S10.7,6,9,6z"/>
	<path fill="#fff" d="M13,0H5C2.2,0,0,2.2,0,5V13c0,2.7,2.2,5,5,5H13c2.7,0,5-2.2,5-5V5C18,2.2,15.8,0,13,0z M9,13.6c-2.6,0-4.6-2-4.6-4.6&#10;&#9;&#9;s2-4.6,4.6-4.6s4.6,2,4.6,4.6S11.6,13.6,9,13.6z M14.6,5c-0.2,0.2-0.5,0.3-0.8,0.3c-0.2,0-0.6-0.1-0.8-0.3&#10;&#9;&#9;c-0.2-0.2-0.3-0.5-0.3-0.8c0-0.2,0.1-0.6,0.3-0.8C13.3,3.1,13.5,3,13.8,3s0.6,0.1,0.8,0.3S15,3.8,15,4.2C15,4.4,14.9,4.7,14.6,5z"/>
</g>
</svg>