<svg version="1.1" id="Capa_1" xmlns="http://www.w3.org/2000/svg" xmlns:xlink="http://www.w3.org/1999/xlink" x="0px" y="0px" viewBox="0 0 19.7 16" style="enable-background:new 0 0 19.7 16;" xml:space="preserve">

		<path  fill="#fff" class="st0" d="M19.7,1.9c-0.7,0.3-1.5,0.5-2.3,0.6c0.8-0.5,1.5-1.3,1.8-2.2c-0.8,0.5-1.6,0.8-2.6,1C15.8,0.5,14.8,0,13.6,0&#10;&#9;&#9;&#9;c-2.2,0-4,1.8-4,4c0,0.3,0,0.6,0.1,0.9C6.3,4.8,3.4,3.2,1.4,0.7C1,1.3,0.8,2,0.8,2.8c0,1.4,0.7,2.6,1.8,3.4C2,6.1,1.3,5.9,0.8,5.6&#10;&#9;&#9;&#9;v0.1c0,2,1.4,3.6,3.2,4C3.7,9.7,3.3,9.8,3,9.8c-0.3,0-0.5,0-0.8-0.1c0.5,1.6,2,2.8,3.8,2.8c-1.4,1.1-3.1,1.7-5,1.7&#10;&#9;&#9;&#9;c-0.3,0-0.6,0-1-0.1C1.8,15.3,3.9,16,6.2,16c7.4,0,11.5-6.2,11.5-11.5l0-0.5C18.5,3.4,19.2,2.7,19.7,1.9z"/>

</svg>